<svg xmlns="http://www.w3.org/2000/svg" xmlns:xlink="http://www.w3.org/1999/xlink" zoomAndPan="magnify" preserveAspectRatio="xMidYMid meet" version="1.0" viewBox="47.52 168.63 289.8 48.55"><defs><g/></defs><g fill="#011936" fill-opacity="1"><g transform="translate(45.750001, 207.749986)"><g><path d="M 21.203125 -36.09375 C 23.335938 -36.09375 25.171875 -35.8125 26.703125 -35.25 C 28.234375 -34.6875 29.632812 -33.882812 30.90625 -32.84375 C 31.269531 -32.550781 31.601562 -32.40625 31.90625 -32.40625 C 32.238281 -32.40625 32.503906 -32.644531 32.703125 -33.125 C 32.898438 -33.601562 33.050781 -34.363281 33.15625 -35.40625 L 34.296875 -35.40625 C 34.160156 -33.03125 34.09375 -28.863281 34.09375 -22.90625 L 32.953125 -22.90625 C 32.710938 -25.53125 32.273438 -27.609375 31.640625 -29.140625 C 31.015625 -30.679688 29.914062 -31.984375 28.34375 -33.046875 C 27.644531 -33.515625 26.835938 -33.878906 25.921875 -34.140625 C 25.003906 -34.410156 24.097656 -34.546875 23.203125 -34.546875 C 20.796875 -34.546875 18.851562 -33.703125 17.375 -32.015625 C 15.894531 -30.335938 14.84375 -28.210938 14.21875 -25.640625 C 13.601562 -23.078125 13.296875 -20.394531 13.296875 -17.59375 C 13.296875 -11.800781 14.003906 -7.46875 15.421875 -4.59375 C 16.835938 -1.726562 18.8125 -0.296875 21.34375 -0.296875 C 22.382812 -0.296875 23.203125 -0.5 23.796875 -0.90625 C 24.492188 -1.40625 24.84375 -2.238281 24.84375 -3.40625 L 24.84375 -8.40625 C 24.84375 -10.070312 24.707031 -11.296875 24.4375 -12.078125 C 24.175781 -12.859375 23.703125 -13.390625 23.015625 -13.671875 C 22.335938 -13.953125 21.265625 -14.128906 19.796875 -14.203125 L 19.796875 -15.203125 C 22.066406 -15.097656 25.25 -15.046875 29.34375 -15.046875 C 32.78125 -15.046875 35.347656 -15.097656 37.046875 -15.203125 L 37.046875 -14.203125 C 36.453125 -14.128906 36.007812 -13.992188 35.71875 -13.796875 C 35.4375 -13.597656 35.242188 -13.210938 35.140625 -12.640625 C 35.046875 -12.078125 35 -11.164062 35 -9.90625 L 35 0 L 34 0 C 33.96875 -0.695312 33.816406 -1.34375 33.546875 -1.9375 C 33.285156 -2.539062 32.921875 -2.84375 32.453125 -2.84375 C 31.753906 -2.84375 30.617188 -2.460938 29.046875 -1.703125 C 25.710938 -0.0976562 22.894531 0.703125 20.59375 0.703125 C 14.394531 0.703125 9.710938 -0.863281 6.546875 -4 C 3.378906 -7.132812 1.796875 -11.601562 1.796875 -17.40625 C 1.796875 -21.070312 2.617188 -24.320312 4.265625 -27.15625 C 5.921875 -29.988281 8.210938 -32.1875 11.140625 -33.75 C 14.078125 -35.3125 17.429688 -36.09375 21.203125 -36.09375 Z M 21.203125 -36.09375 "/></g></g></g><g fill="#011936" fill-opacity="1"><g transform="translate(83.544147, 207.749986)"><g><path d="M 19.296875 -26.65625 C 20.929688 -26.65625 22.109375 -26.15625 22.828125 -25.15625 C 23.546875 -24.15625 23.90625 -22.96875 23.90625 -21.59375 C 23.90625 -20.09375 23.476562 -18.898438 22.625 -18.015625 C 21.769531 -17.140625 20.660156 -16.703125 19.296875 -16.703125 C 17.867188 -16.703125 16.769531 -17.023438 16 -17.671875 C 15.226562 -18.328125 14.84375 -19.203125 14.84375 -20.296875 C 14.84375 -22.265625 15.695312 -23.816406 17.40625 -24.953125 C 16.800781 -24.953125 16.265625 -24.832031 15.796875 -24.59375 C 14.960938 -24.226562 14.257812 -23.632812 13.6875 -22.8125 C 13.125 -22 12.84375 -21.113281 12.84375 -20.15625 L 12.84375 -5.15625 C 12.84375 -3.582031 13.164062 -2.503906 13.8125 -1.921875 C 14.46875 -1.335938 15.582031 -1.046875 17.15625 -1.046875 L 17.15625 0 C 16.71875 0 16.347656 -0.015625 16.046875 -0.046875 C 12.546875 -0.148438 10.210938 -0.203125 9.046875 -0.203125 C 8.015625 -0.203125 5.695312 -0.148438 2.09375 -0.046875 C 1.832031 -0.015625 1.484375 0 1.046875 0 L 1.046875 -1.046875 C 2.078125 -1.046875 2.800781 -1.300781 3.21875 -1.8125 C 3.632812 -2.332031 3.84375 -3.28125 3.84375 -4.65625 L 3.84375 -20.5 C 3.84375 -22.03125 3.632812 -23.144531 3.21875 -23.84375 C 2.800781 -24.550781 2.078125 -24.90625 1.046875 -24.90625 L 1.046875 -25.953125 C 2.117188 -25.847656 3.15625 -25.796875 4.15625 -25.796875 C 7.613281 -25.796875 10.507812 -26.03125 12.84375 -26.5 L 12.84375 -22.90625 C 14.113281 -25.40625 16.265625 -26.65625 19.296875 -26.65625 Z M 19.296875 -26.65625 "/></g></g></g><g fill="#011936" fill-opacity="1"><g transform="translate(107.590425, 207.749986)"><g><path d="M 7.546875 0.34375 C 5.410156 0.34375 3.800781 -0.226562 2.71875 -1.375 C 1.632812 -2.519531 1.09375 -3.960938 1.09375 -5.703125 C 1.09375 -7.203125 1.484375 -8.441406 2.265625 -9.421875 C 3.054688 -10.410156 3.984375 -11.171875 5.046875 -11.703125 C 6.117188 -12.234375 7.503906 -12.78125 9.203125 -13.34375 C 11.003906 -13.945312 12.320312 -14.5 13.15625 -15 C 13.988281 -15.5 14.40625 -16.195312 14.40625 -17.09375 L 14.40625 -21.546875 C 14.40625 -22.617188 14.132812 -23.570312 13.59375 -24.40625 C 13.0625 -25.238281 12.144531 -25.65625 10.84375 -25.65625 C 9.8125 -25.65625 8.878906 -25.367188 8.046875 -24.796875 C 9.179688 -24.398438 10.023438 -23.804688 10.578125 -23.015625 C 11.128906 -22.234375 11.40625 -21.363281 11.40625 -20.40625 C 11.40625 -19.101562 10.945312 -18.054688 10.03125 -17.265625 C 9.113281 -16.484375 8.003906 -16.09375 6.703125 -16.09375 C 5.398438 -16.09375 4.375 -16.5 3.625 -17.3125 C 2.875 -18.132812 2.5 -19.179688 2.5 -20.453125 C 2.5 -21.453125 2.75 -22.316406 3.25 -23.046875 C 3.75 -23.785156 4.53125 -24.453125 5.59375 -25.046875 C 7.46875 -26.117188 10.132812 -26.65625 13.59375 -26.65625 C 15.425781 -26.65625 17.007812 -26.476562 18.34375 -26.125 C 19.675781 -25.769531 20.8125 -25.113281 21.75 -24.15625 C 22.414062 -23.445312 22.859375 -22.566406 23.078125 -21.515625 C 23.296875 -20.472656 23.40625 -19.019531 23.40625 -17.15625 L 23.40625 -3.75 C 23.40625 -2.914062 23.460938 -2.347656 23.578125 -2.046875 C 23.691406 -1.742188 23.898438 -1.59375 24.203125 -1.59375 C 24.429688 -1.59375 24.675781 -1.664062 24.9375 -1.8125 C 25.207031 -1.96875 25.460938 -2.144531 25.703125 -2.34375 L 26.203125 -1.5 C 24.765625 -0.269531 22.710938 0.34375 20.046875 0.34375 C 18.046875 0.34375 16.644531 0.00390625 15.84375 -0.671875 C 15.050781 -1.359375 14.617188 -2.285156 14.546875 -3.453125 C 12.984375 -0.921875 10.648438 0.34375 7.546875 0.34375 Z M 12.546875 -3.65625 C 13.242188 -3.65625 13.863281 -3.9375 14.40625 -4.5 L 14.40625 -15.046875 C 14.101562 -14.546875 13.550781 -13.894531 12.75 -13.09375 C 11.851562 -12.226562 11.171875 -11.382812 10.703125 -10.5625 C 10.234375 -9.75 10 -8.644531 10 -7.25 C 10 -4.851562 10.847656 -3.65625 12.546875 -3.65625 Z M 12.546875 -3.65625 "/></g></g></g><g fill="#011936" fill-opacity="1"><g transform="translate(134.136311, 207.749986)"><g><path d="M 42.453125 -4.65625 C 42.453125 -3.28125 42.660156 -2.332031 43.078125 -1.8125 C 43.492188 -1.300781 44.21875 -1.046875 45.25 -1.046875 L 45.25 0 C 41.644531 -0.132812 39.3125 -0.203125 38.25 -0.203125 C 37.1875 -0.203125 34.988281 -0.132812 31.65625 0 L 31.65625 -1.046875 C 32.320312 -1.046875 32.785156 -1.296875 33.046875 -1.796875 C 33.316406 -2.296875 33.453125 -3.25 33.453125 -4.65625 L 33.453125 -20.90625 C 33.453125 -21.96875 33.257812 -22.753906 32.875 -23.265625 C 32.488281 -23.785156 31.863281 -24.046875 31 -24.046875 C 30.132812 -24.046875 29.34375 -23.675781 28.625 -22.9375 C 27.90625 -22.207031 27.460938 -21.34375 27.296875 -20.34375 C 27.367188 -19.550781 27.40625 -18.835938 27.40625 -18.203125 L 27.40625 -4.65625 C 27.40625 -3.25 27.570312 -2.296875 27.90625 -1.796875 C 28.238281 -1.296875 28.835938 -1.046875 29.703125 -1.046875 L 29.703125 0 C 26.367188 -0.132812 24.203125 -0.203125 23.203125 -0.203125 C 22.128906 -0.203125 19.925781 -0.132812 16.59375 0 L 16.59375 -1.046875 C 17.257812 -1.046875 17.726562 -1.300781 18 -1.8125 C 18.269531 -2.332031 18.40625 -3.28125 18.40625 -4.65625 L 18.40625 -20.90625 C 18.40625 -21.96875 18.253906 -22.753906 17.953125 -23.265625 C 17.648438 -23.785156 17.148438 -24.046875 16.453125 -24.046875 C 15.484375 -24.046875 14.640625 -23.703125 13.921875 -23.015625 C 13.203125 -22.335938 12.84375 -21.484375 12.84375 -20.453125 L 12.84375 -4.65625 C 12.84375 -3.25 12.976562 -2.296875 13.25 -1.796875 C 13.519531 -1.296875 13.988281 -1.046875 14.65625 -1.046875 L 14.65625 0 C 11.582031 -0.132812 9.546875 -0.203125 8.546875 -0.203125 C 7.410156 -0.203125 4.910156 -0.132812 1.046875 0 L 1.046875 -1.046875 C 2.078125 -1.046875 2.800781 -1.300781 3.21875 -1.8125 C 3.632812 -2.332031 3.84375 -3.28125 3.84375 -4.65625 L 3.84375 -20.5 C 3.84375 -22.03125 3.632812 -23.144531 3.21875 -23.84375 C 2.800781 -24.550781 2.078125 -24.90625 1.046875 -24.90625 L 1.046875 -25.953125 C 2.117188 -25.847656 3.15625 -25.796875 4.15625 -25.796875 C 7.613281 -25.796875 10.507812 -26.03125 12.84375 -26.5 L 12.84375 -22.90625 C 14.25 -25.40625 16.734375 -26.65625 20.296875 -26.65625 C 22.960938 -26.65625 24.847656 -25.988281 25.953125 -24.65625 C 26.453125 -24.050781 26.816406 -23.265625 27.046875 -22.296875 C 27.878906 -23.898438 28.988281 -25.023438 30.375 -25.671875 C 31.757812 -26.328125 33.414062 -26.65625 35.34375 -26.65625 C 38.007812 -26.65625 39.894531 -25.988281 41 -24.65625 C 41.5 -24.050781 41.863281 -23.238281 42.09375 -22.21875 C 42.332031 -21.207031 42.453125 -19.867188 42.453125 -18.203125 Z M 42.453125 -4.65625 "/></g></g></g><g fill="#011936" fill-opacity="1"><g transform="translate(179.929223, 207.749986)"><g><path d="M 42.453125 -4.65625 C 42.453125 -3.28125 42.660156 -2.332031 43.078125 -1.8125 C 43.492188 -1.300781 44.21875 -1.046875 45.25 -1.046875 L 45.25 0 C 41.644531 -0.132812 39.3125 -0.203125 38.25 -0.203125 C 37.1875 -0.203125 34.988281 -0.132812 31.65625 0 L 31.65625 -1.046875 C 32.320312 -1.046875 32.785156 -1.296875 33.046875 -1.796875 C 33.316406 -2.296875 33.453125 -3.25 33.453125 -4.65625 L 33.453125 -20.90625 C 33.453125 -21.96875 33.257812 -22.753906 32.875 -23.265625 C 32.488281 -23.785156 31.863281 -24.046875 31 -24.046875 C 30.132812 -24.046875 29.34375 -23.675781 28.625 -22.9375 C 27.90625 -22.207031 27.460938 -21.34375 27.296875 -20.34375 C 27.367188 -19.550781 27.40625 -18.835938 27.40625 -18.203125 L 27.40625 -4.65625 C 27.40625 -3.25 27.570312 -2.296875 27.90625 -1.796875 C 28.238281 -1.296875 28.835938 -1.046875 29.703125 -1.046875 L 29.703125 0 C 26.367188 -0.132812 24.203125 -0.203125 23.203125 -0.203125 C 22.128906 -0.203125 19.925781 -0.132812 16.59375 0 L 16.59375 -1.046875 C 17.257812 -1.046875 17.726562 -1.300781 18 -1.8125 C 18.269531 -2.332031 18.40625 -3.28125 18.40625 -4.65625 L 18.40625 -20.90625 C 18.40625 -21.96875 18.253906 -22.753906 17.953125 -23.265625 C 17.648438 -23.785156 17.148438 -24.046875 16.453125 -24.046875 C 15.484375 -24.046875 14.640625 -23.703125 13.921875 -23.015625 C 13.203125 -22.335938 12.84375 -21.484375 12.84375 -20.453125 L 12.84375 -4.65625 C 12.84375 -3.25 12.976562 -2.296875 13.25 -1.796875 C 13.519531 -1.296875 13.988281 -1.046875 14.65625 -1.046875 L 14.65625 0 C 11.582031 -0.132812 9.546875 -0.203125 8.546875 -0.203125 C 7.410156 -0.203125 4.910156 -0.132812 1.046875 0 L 1.046875 -1.046875 C 2.078125 -1.046875 2.800781 -1.300781 3.21875 -1.8125 C 3.632812 -2.332031 3.84375 -3.28125 3.84375 -4.65625 L 3.84375 -20.5 C 3.84375 -22.03125 3.632812 -23.144531 3.21875 -23.84375 C 2.800781 -24.550781 2.078125 -24.90625 1.046875 -24.90625 L 1.046875 -25.953125 C 2.117188 -25.847656 3.15625 -25.796875 4.15625 -25.796875 C 7.613281 -25.796875 10.507812 -26.03125 12.84375 -26.5 L 12.84375 -22.90625 C 14.25 -25.40625 16.734375 -26.65625 20.296875 -26.65625 C 22.960938 -26.65625 24.847656 -25.988281 25.953125 -24.65625 C 26.453125 -24.050781 26.816406 -23.265625 27.046875 -22.296875 C 27.878906 -23.898438 28.988281 -25.023438 30.375 -25.671875 C 31.757812 -26.328125 33.414062 -26.65625 35.34375 -26.65625 C 38.007812 -26.65625 39.894531 -25.988281 41 -24.65625 C 41.5 -24.050781 41.863281 -23.238281 42.09375 -22.21875 C 42.332031 -21.207031 42.453125 -19.867188 42.453125 -18.203125 Z M 42.453125 -4.65625 "/></g></g></g><g fill="#011936" fill-opacity="1"><g transform="translate(225.722135, 207.749986)"><g><path d="M 7.546875 0.34375 C 5.410156 0.34375 3.800781 -0.226562 2.71875 -1.375 C 1.632812 -2.519531 1.09375 -3.960938 1.09375 -5.703125 C 1.09375 -7.203125 1.484375 -8.441406 2.265625 -9.421875 C 3.054688 -10.410156 3.984375 -11.171875 5.046875 -11.703125 C 6.117188 -12.234375 7.503906 -12.78125 9.203125 -13.34375 C 11.003906 -13.945312 12.320312 -14.5 13.15625 -15 C 13.988281 -15.5 14.40625 -16.195312 14.40625 -17.09375 L 14.40625 -21.546875 C 14.40625 -22.617188 14.132812 -23.570312 13.59375 -24.40625 C 13.0625 -25.238281 12.144531 -25.65625 10.84375 -25.65625 C 9.8125 -25.65625 8.878906 -25.367188 8.046875 -24.796875 C 9.179688 -24.398438 10.023438 -23.804688 10.578125 -23.015625 C 11.128906 -22.234375 11.40625 -21.363281 11.40625 -20.40625 C 11.40625 -19.101562 10.945312 -18.054688 10.03125 -17.265625 C 9.113281 -16.484375 8.003906 -16.09375 6.703125 -16.09375 C 5.398438 -16.09375 4.375 -16.5 3.625 -17.3125 C 2.875 -18.132812 2.5 -19.179688 2.5 -20.453125 C 2.5 -21.453125 2.75 -22.316406 3.25 -23.046875 C 3.75 -23.785156 4.53125 -24.453125 5.59375 -25.046875 C 7.46875 -26.117188 10.132812 -26.65625 13.59375 -26.65625 C 15.425781 -26.65625 17.007812 -26.476562 18.34375 -26.125 C 19.675781 -25.769531 20.8125 -25.113281 21.75 -24.15625 C 22.414062 -23.445312 22.859375 -22.566406 23.078125 -21.515625 C 23.296875 -20.472656 23.40625 -19.019531 23.40625 -17.15625 L 23.40625 -3.75 C 23.40625 -2.914062 23.460938 -2.347656 23.578125 -2.046875 C 23.691406 -1.742188 23.898438 -1.59375 24.203125 -1.59375 C 24.429688 -1.59375 24.675781 -1.664062 24.9375 -1.8125 C 25.207031 -1.96875 25.460938 -2.144531 25.703125 -2.34375 L 26.203125 -1.5 C 24.765625 -0.269531 22.710938 0.34375 20.046875 0.34375 C 18.046875 0.34375 16.644531 0.00390625 15.84375 -0.671875 C 15.050781 -1.359375 14.617188 -2.285156 14.546875 -3.453125 C 12.984375 -0.921875 10.648438 0.34375 7.546875 0.34375 Z M 12.546875 -3.65625 C 13.242188 -3.65625 13.863281 -3.9375 14.40625 -4.5 L 14.40625 -15.046875 C 14.101562 -14.546875 13.550781 -13.894531 12.75 -13.09375 C 11.851562 -12.226562 11.171875 -11.382812 10.703125 -10.5625 C 10.234375 -9.75 10 -8.644531 10 -7.25 C 10 -4.851562 10.847656 -3.65625 12.546875 -3.65625 Z M 12.546875 -3.65625 "/></g></g></g><g fill="#011936" fill-opacity="1"><g transform="translate(252.268009, 207.749986)"><g><path d="M 19.296875 -26.65625 C 20.929688 -26.65625 22.109375 -26.15625 22.828125 -25.15625 C 23.546875 -24.15625 23.90625 -22.96875 23.90625 -21.59375 C 23.90625 -20.09375 23.476562 -18.898438 22.625 -18.015625 C 21.769531 -17.140625 20.660156 -16.703125 19.296875 -16.703125 C 17.867188 -16.703125 16.769531 -17.023438 16 -17.671875 C 15.226562 -18.328125 14.84375 -19.203125 14.84375 -20.296875 C 14.84375 -22.265625 15.695312 -23.816406 17.40625 -24.953125 C 16.800781 -24.953125 16.265625 -24.832031 15.796875 -24.59375 C 14.960938 -24.226562 14.257812 -23.632812 13.6875 -22.8125 C 13.125 -22 12.84375 -21.113281 12.84375 -20.15625 L 12.84375 -5.15625 C 12.84375 -3.582031 13.164062 -2.503906 13.8125 -1.921875 C 14.46875 -1.335938 15.582031 -1.046875 17.15625 -1.046875 L 17.15625 0 C 16.71875 0 16.347656 -0.015625 16.046875 -0.046875 C 12.546875 -0.148438 10.210938 -0.203125 9.046875 -0.203125 C 8.015625 -0.203125 5.695312 -0.148438 2.09375 -0.046875 C 1.832031 -0.015625 1.484375 0 1.046875 0 L 1.046875 -1.046875 C 2.078125 -1.046875 2.800781 -1.300781 3.21875 -1.8125 C 3.632812 -2.332031 3.84375 -3.28125 3.84375 -4.65625 L 3.84375 -20.5 C 3.84375 -22.03125 3.632812 -23.144531 3.21875 -23.84375 C 2.800781 -24.550781 2.078125 -24.90625 1.046875 -24.90625 L 1.046875 -25.953125 C 2.117188 -25.847656 3.15625 -25.796875 4.15625 -25.796875 C 7.613281 -25.796875 10.507812 -26.03125 12.84375 -26.5 L 12.84375 -22.90625 C 14.113281 -25.40625 16.265625 -26.65625 19.296875 -26.65625 Z M 19.296875 -26.65625 "/></g></g></g><g fill="#011936" fill-opacity="1"><g transform="translate(276.314287, 207.749986)"><g><path d="M 8.046875 -39.09375 C 9.785156 -39.09375 11.128906 -38.726562 12.078125 -38 C 13.023438 -37.269531 13.5 -36.203125 13.5 -34.796875 C 13.5 -33.398438 13.023438 -32.332031 12.078125 -31.59375 C 11.128906 -30.863281 9.785156 -30.5 8.046875 -30.5 C 6.285156 -30.5 4.9375 -30.863281 4 -31.59375 C 3.0625 -32.332031 2.59375 -33.398438 2.59375 -34.796875 C 2.59375 -36.203125 3.0625 -37.269531 4 -38 C 4.9375 -38.726562 6.285156 -39.09375 8.046875 -39.09375 Z M 12.84375 -4.65625 C 12.84375 -3.28125 13.050781 -2.332031 13.46875 -1.8125 C 13.882812 -1.300781 14.613281 -1.046875 15.65625 -1.046875 L 15.65625 0 C 12.050781 -0.132812 9.679688 -0.203125 8.546875 -0.203125 C 7.410156 -0.203125 4.910156 -0.132812 1.046875 0 L 1.046875 -1.046875 C 2.078125 -1.046875 2.800781 -1.300781 3.21875 -1.8125 C 3.632812 -2.332031 3.84375 -3.28125 3.84375 -4.65625 L 3.84375 -20.5 C 3.84375 -22.03125 3.632812 -23.144531 3.21875 -23.84375 C 2.800781 -24.550781 2.078125 -24.90625 1.046875 -24.90625 L 1.046875 -25.953125 C 2.117188 -25.847656 3.15625 -25.796875 4.15625 -25.796875 C 7.613281 -25.796875 10.507812 -26.03125 12.84375 -26.5 Z M 12.84375 -4.65625 "/></g></g></g><g fill="#011936" fill-opacity="1"><g transform="translate(292.811723, 207.749986)"><g><path d="M 14.796875 -39.09375 C 17.203125 -39.09375 19.203125 -38.476562 20.796875 -37.25 C 21.328125 -36.851562 21.769531 -36.285156 22.125 -35.546875 C 22.476562 -34.816406 22.65625 -34 22.65625 -33.09375 C 22.65625 -32.03125 22.257812 -31.085938 21.46875 -30.265625 C 20.6875 -29.453125 19.695312 -29.046875 18.5 -29.046875 C 17.101562 -29.046875 16.003906 -29.410156 15.203125 -30.140625 C 14.398438 -30.878906 14 -31.898438 14 -33.203125 C 14 -34.203125 14.289062 -35.097656 14.875 -35.890625 C 15.457031 -36.691406 16.316406 -37.28125 17.453125 -37.65625 C 17.210938 -37.945312 16.757812 -38.09375 16.09375 -38.09375 C 15.0625 -38.09375 14.28125 -37.78125 13.75 -37.15625 C 13.414062 -36.75 13.171875 -36.203125 13.015625 -35.515625 C 12.867188 -34.835938 12.796875 -33.863281 12.796875 -32.59375 L 12.796875 -25.90625 L 18.15625 -25.90625 L 18.15625 -24.90625 L 12.796875 -24.90625 L 12.796875 -5.15625 C 12.796875 -3.613281 13.15625 -2.539062 13.875 -1.9375 C 14.59375 -1.34375 15.664062 -1.046875 17.09375 -1.046875 L 17.09375 0 L 15.65625 -0.046875 C 11.65625 -0.148438 9.070312 -0.203125 7.90625 -0.203125 C 6.90625 -0.203125 4.601562 -0.132812 1 0 L 1 -1.046875 C 2.03125 -1.046875 2.753906 -1.300781 3.171875 -1.8125 C 3.585938 -2.332031 3.796875 -3.28125 3.796875 -4.65625 L 3.796875 -24.90625 L 0.796875 -24.90625 L 0.796875 -25.90625 L 3.796875 -25.90625 C 3.796875 -28.800781 4.050781 -31.023438 4.5625 -32.578125 C 5.082031 -34.128906 6.007812 -35.46875 7.34375 -36.59375 C 8.175781 -37.300781 9.257812 -37.894531 10.59375 -38.375 C 11.925781 -38.851562 13.328125 -39.09375 14.796875 -39.09375 Z M 14.796875 -39.09375 "/></g></g></g><g fill="#011936" fill-opacity="1"><g transform="translate(311.058914, 207.749986)"><g><path d="M 22.40625 -25.75 C 24.300781 -25.75 25.582031 -25.816406 26.25 -25.953125 L 26.25 -24.90625 C 25.550781 -24.664062 24.910156 -24.175781 24.328125 -23.4375 C 23.742188 -22.707031 23.203125 -21.578125 22.703125 -20.046875 L 16.453125 -1.453125 L 14.34375 4.59375 C 13.75 6.332031 13.019531 7.535156 12.15625 8.203125 C 11.113281 9.003906 9.5625 9.40625 7.5 9.40625 C 5.832031 9.40625 4.28125 9.007812 2.84375 8.21875 C 1.414062 7.4375 0.703125 6.265625 0.703125 4.703125 C 0.703125 3.535156 1.148438 2.597656 2.046875 1.890625 C 2.953125 1.191406 4.132812 0.84375 5.59375 0.84375 C 7 0.84375 8.097656 1.160156 8.890625 1.796875 C 9.691406 2.429688 10.09375 3.347656 10.09375 4.546875 C 10.09375 5.347656 9.816406 6.109375 9.265625 6.828125 C 8.722656 7.546875 7.914062 8.070312 6.84375 8.40625 C 7.175781 8.46875 7.742188 8.5 8.546875 8.5 C 10.847656 8.5 12.429688 7.164062 13.296875 4.5 L 13.546875 3.65625 L 1.90625 -22.09375 C 1.40625 -23.226562 0.910156 -23.976562 0.421875 -24.34375 C -0.0546875 -24.71875 -0.53125 -24.90625 -1 -24.90625 L -1 -25.953125 C 1.664062 -25.753906 4.382812 -25.65625 7.15625 -25.65625 C 9.320312 -25.65625 11.738281 -25.753906 14.40625 -25.953125 L 14.40625 -24.90625 C 13.4375 -24.90625 12.691406 -24.835938 12.171875 -24.703125 C 11.660156 -24.566406 11.40625 -24.265625 11.40625 -23.796875 C 11.40625 -23.535156 11.46875 -23.269531 11.59375 -23 L 17.75 -8.34375 L 19.84375 -14.75 C 20.476562 -16.6875 20.796875 -18.382812 20.796875 -19.84375 C 20.796875 -21.414062 20.460938 -22.632812 19.796875 -23.5 C 19.128906 -24.363281 18.25 -24.832031 17.15625 -24.90625 L 17.15625 -25.953125 C 18.382812 -25.816406 20.132812 -25.75 22.40625 -25.75 Z M 22.40625 -25.75 "/></g></g></g></svg>